<svg id="Layer_1" data-name="Layer 1" xmlns="http://www.w3.org/2000/svg" viewBox="0 0 11.61 9.64"><defs><style>.cls-1{fill:#1aa31d;}.cls-2{fill:#f22727;}</style></defs><title>NHSlogo</title><path class="cls-1" d="M5.6,2.34l.3,3.23L7.09,2.68,7.3,5.73l.41-.83H9.49a4.52,4.52,0,0,0,.27-1.41c0-1.08-.29-2.3-1.89-2.3a1.87,1.87,0,0,0-1.74.93A1.85,1.85,0,0,0,4.4,1.19c-1.6,0-1.92,1.22-1.89,2.3a4.55,4.55,0,0,0,.32,1.59h0Z"/><path class="cls-2" d="M6.94,7.64l-.2-2.8L5.59,7.62,5.2,3.45,3.06,5.58h0a4.71,4.71,0,0,0,.57.9,10.15,10.15,0,0,0,2.5,2.16A10.29,10.29,0,0,0,8.64,6.48,4.77,4.77,0,0,0,9.29,5.4H8Z"/><path class="cls-1" d="M.48,5.08v.5H3.06a3.81,3.81,0,0,1-.23-.5Z"/><path class="cls-2" d="M11.17,4.9H9.49a3.07,3.07,0,0,1-.2.5h1.88Z"/></svg>